<svg xmlns="http://www.w3.org/2000/svg" viewBox="0 0 1440 320"  preserveAspectRatio="none"><path fill="#ffff" fill-opacity="1" d="M0,256L0,128L38.9,128L38.9,32L77.8,32L77.8,64L116.8,64L116.8,160L155.7,160L155.7,32L194.6,32L194.6,160L233.5,160L233.5,160L272.4,160L272.4,32L311.4,32L311.4,96L350.3,96L350.3,192L389.2,192L389.2,192L428.1,192L428.1,64L467,64L467,256L505.9,256L505.9,128L544.9,128L544.9,256L583.8,256L583.8,160L622.7,160L622.7,160L661.6,160L661.6,192L700.5,192L700.5,64L739.5,64L739.5,64L778.4,64L778.4,224L817.3,224L817.3,64L856.2,64L856.2,288L895.1,288L895.1,64L934.1,64L934.1,288L973,288L973,192L1011.9,192L1011.9,128L1050.8,128L1050.8,160L1089.7,160L1089.7,96L1128.6,96L1128.6,96L1167.6,96L1167.6,160L1206.5,160L1206.5,64L1245.4,64L1245.4,32L1284.3,32L1284.3,288L1323.2,288L1323.2,96L1362.2,96L1362.2,256L1401.1,256L1401.1,160L1440,160L1440,0L1401.1,0L1401.1,0L1362.2,0L1362.2,0L1323.2,0L1323.2,0L1284.3,0L1284.3,0L1245.4,0L1245.4,0L1206.5,0L1206.5,0L1167.6,0L1167.6,0L1128.6,0L1128.6,0L1089.7,0L1089.7,0L1050.8,0L1050.8,0L1011.9,0L1011.9,0L973,0L973,0L934.1,0L934.1,0L895.1,0L895.1,0L856.2,0L856.2,0L817.3,0L817.3,0L778.4,0L778.4,0L739.5,0L739.5,0L700.5,0L700.5,0L661.6,0L661.6,0L622.7,0L622.7,0L583.8,0L583.8,0L544.9,0L544.9,0L505.9,0L505.9,0L467,0L467,0L428.1,0L428.1,0L389.2,0L389.2,0L350.3,0L350.3,0L311.4,0L311.4,0L272.4,0L272.4,0L233.5,0L233.5,0L194.6,0L194.6,0L155.7,0L155.7,0L116.8,0L116.8,0L77.8,0L77.8,0L38.9,0L38.9,0L0,0L0,0Z"></path></svg>