<svg xmlns="http://www.w3.org/2000/svg" viewBox="0 0 1440 320" preserveAspectRatio="none"><path fill="#ffff" fill-opacity="1" d="M0,256L0,128L38.9,128L38.9,32L77.8,32L77.8,64L116.8,64L116.8,160L155.7,160L155.7,32L194.6,32L194.6,160L233.5,160L233.5,160L272.4,160L272.4,32L311.4,32L311.4,96L350.3,96L350.3,192L389.2,192L389.2,192L428.1,192L428.1,64L467,64L467,256L505.9,256L505.9,128L544.9,128L544.9,256L583.8,256L583.8,160L622.7,160L622.7,160L661.6,160L661.6,192L700.5,192L700.5,64L739.5,64L739.5,64L778.4,64L778.4,224L817.3,224L817.3,64L856.2,64L856.2,288L895.1,288L895.1,64L934.1,64L934.1,288L973,288L973,192L1011.9,192L1011.9,128L1050.8,128L1050.8,160L1089.7,160L1089.7,96L1128.6,96L1128.6,96L1167.6,96L1167.6,160L1206.5,160L1206.5,64L1245.4,64L1245.4,32L1284.3,32L1284.3,288L1323.2,288L1323.2,96L1362.2,96L1362.2,256L1401.1,256L1401.1,160L1440,160L1440,320L1401.1,320L1401.1,320L1362.2,320L1362.2,320L1323.2,320L1323.2,320L1284.3,320L1284.3,320L1245.4,320L1245.4,320L1206.5,320L1206.5,320L1167.6,320L1167.6,320L1128.6,320L1128.6,320L1089.7,320L1089.7,320L1050.8,320L1050.8,320L1011.9,320L1011.9,320L973,320L973,320L934.1,320L934.1,320L895.1,320L895.1,320L856.2,320L856.2,320L817.3,320L817.3,320L778.4,320L778.4,320L739.5,320L739.5,320L700.5,320L700.5,320L661.6,320L661.6,320L622.7,320L622.7,320L583.8,320L583.8,320L544.9,320L544.9,320L505.9,320L505.9,320L467,320L467,320L428.1,320L428.1,320L389.2,320L389.2,320L350.3,320L350.3,320L311.4,320L311.4,320L272.4,320L272.4,320L233.5,320L233.5,320L194.6,320L194.6,320L155.7,320L155.7,320L116.8,320L116.8,320L77.8,320L77.8,320L38.9,320L38.9,320L0,320L0,320Z"></path></svg>